<svg xmlns="http://www.w3.org/2000/svg"
    class="bball"
     xmlns:xlink="http://www.w3.org/1999/xlink" xmlns:sketch="http://www.bohemiancoding.com/sketch/ns" viewBox="0 0 58 72.5" version="1.1" x="0px" y="0px"><title>96 - Basketball (Solid)</title><desc>Created with Sketch.</desc><g stroke="none" stroke-width="1" fill="none" fill-rule="evenodd" sketch:type="MSPage"><g sketch:type="MSLayerGroup" fill="#000000"><path d="M0.104,31.364 C0.606,37.55 3.054,43.193 6.839,47.677 C8.703,41.405 11.986,35.172 16.213,29.461 C16.033,29.364 15.853,29.273 15.675,29.189 C10.91,26.958 4.064,27.951 0.104,31.364" sketch:type="MSShapeGroup"/><path d="M12.01,12.724 L7.948,9.086 C3.045,14.266 0.024,21.243 0.002,28.916 C4.63,25.74 11.47,25.012 16.523,27.378 C16.84,27.527 17.143,27.687 17.437,27.855 C19.056,25.793 20.791,23.805 22.628,21.922 C19.182,18.746 15.647,15.667 12.01,12.724" sketch:type="MSShapeGroup"/><path d="M30.842,0.065 C28.441,4.354 28.216,10.655 30.497,14.957 C35.648,11.036 41.205,7.965 46.795,6.126 C42.333,2.647 36.833,0.442 30.842,0.065" sketch:type="MSShapeGroup"/><path d="M43.419,43.895 C37.432,36.614 30.956,29.711 24.074,23.253 C22.299,25.068 20.624,26.987 19.06,28.977 C21.895,31.316 23.283,34.85 23.002,39.208 C23.237,44.412 26.394,49.255 31.455,52.171 C35.206,54.333 39.42,55.066 43.127,54.313 C45.153,53.178 47.029,51.808 48.719,50.238 L43.419,43.895" sketch:type="MSShapeGroup"/><path d="M48.61,7.658 C42.778,9.375 36.951,12.51 31.581,16.607 C33.155,18.571 35.779,20.294 40.129,20.002 L40.183,19.999 L40.238,20.001 C45.58,20.222 50.588,23.107 53.978,27.915 C55.636,30.268 56.745,32.855 57.267,35.454 C57.741,33.377 58,31.219 58,29 C58,20.565 54.378,12.962 48.61,7.658" sketch:type="MSShapeGroup"/><path d="M30.456,53.904 C24.78,50.634 21.246,45.151 21.001,39.238 L20.999,39.183 L21.002,39.129 C21.297,34.781 19.739,32.155 17.846,30.567 C13.481,36.459 10.146,42.93 8.418,49.407 C13.676,54.709 20.96,58 29,58 C32.233,58 35.341,57.46 38.248,56.479 C35.609,56.19 32.937,55.334 30.456,53.904" sketch:type="MSShapeGroup"/><path d="M52.343,29.067 C49.325,24.787 44.905,22.214 40.208,22.001 C35.923,22.276 32.383,20.81 30.01,17.842 C28.458,19.101 26.948,20.437 25.495,21.842 C32.414,28.339 38.933,35.289 44.959,42.618 L50.141,48.821 C52.325,46.493 54.128,43.806 55.454,40.859 C56.034,37.024 54.934,32.745 52.343,29.067" sketch:type="MSShapeGroup"/><path d="M9.371,7.676 L13.307,11.201 C16.983,14.177 20.56,17.292 24.048,20.51 C25.61,18.995 27.234,17.555 28.906,16.203 C28.85,16.103 28.79,16.008 28.736,15.906 C26.274,11.274 26.333,4.832 28.622,0.01 C21.205,0.105 14.453,2.995 9.371,7.676" sketch:type="MSShapeGroup"/></g></g><text x="0" y="73" fill="#000000" font-size="5px" font-weight="bold" font-family="'Helvetica Neue', Helvetica, Arial-Unicode, Arial, Sans-serif">Created by Oliviu Stoian</text><text x="0" y="78" fill="#000000" font-size="5px" font-weight="bold" font-family="'Helvetica Neue', Helvetica, Arial-Unicode, Arial, Sans-serif">from the Noun Project</text></svg>
